HIERARCHY
ROOT hip
{
	OFFSET 0.000000 0.000000 0.000000 
	CHANNELS 6 Xposition Yposition Zposition Xrotation Zrotation Yrotation
	JOINT abdomen
	{
		OFFSET 0.000000 3.402643 0.000000 
		CHANNELS 3 Xrotation Zrotation Yrotation
		JOINT chest
		{
			OFFSET 0.000000 8.438565 -0.680529 
			CHANNELS 3 Xrotation Zrotation Yrotation
			JOINT neck
			{
				OFFSET 0.000000 10.207942 -0.272212 
				CHANNELS 3 Xrotation Zrotation Yrotation
				JOINT head
				{
					OFFSET 0.000000 3.130431 0.000000 
					CHANNELS 3 Xrotation Zrotation Yrotation
					End Site
					{
						OFFSET 0.000000 3.130435 0.000000 
					}
				}
			}
			JOINT lCollar
			{
				OFFSET 3.470700 6.669187 -0.816635 
				CHANNELS 3 Yrotation Zrotation Xrotation
				JOINT lShldr
				{
					OFFSET 3.198488 0.000000 0.000000 
					CHANNELS 3 Zrotation Yrotation Xrotation
					JOINT lForeArm
					{
						OFFSET 10.139888 0.000000 0.000000 
						CHANNELS 3 Yrotation Zrotation Xrotation
						JOINT lHand
						{
							OFFSET 8.370511 0.000000 0.000000 
							CHANNELS 3 Zrotation Yrotation Xrotation
							End Site
							{
								OFFSET 4.083176 0.000000 0.000000 
							}
						}
					}
				}
			}
			JOINT rCollar
			{
				OFFSET -3.470700 6.669187 -0.816635 
				CHANNELS 3 Yrotation Zrotation Xrotation
				JOINT rShldr
				{
					OFFSET -3.198488 0.000000 0.000000 
					CHANNELS 3 Zrotation Yrotation Xrotation
					JOINT rForeArm
					{
						OFFSET -10.139888 0.000000 0.000000 
						CHANNELS 3 Yrotation Zrotation Xrotation
						JOINT rHand
						{
							OFFSET -8.370511 0.000000 0.000000 
							CHANNELS 3 Zrotation Yrotation Xrotation
							End Site
							{
								OFFSET -4.083176 0.000000 0.000000 
							}
						}
					}
				}
			}
		}
	}
	JOINT lThigh
	{
		OFFSET 5.308129 -1.633274 1.361059 
		CHANNELS 3 Xrotation Zrotation Yrotation
		JOINT lShin
		{
			OFFSET -2.041588 -20.007561 0.000000 
			CHANNELS 3 Xrotation Zrotation Yrotation
			JOINT lFoot
			{
				OFFSET 0.000000 -19.190928 -1.224953 
				CHANNELS 3 Xrotation Yrotation Zrotation
				End Site
				{
					OFFSET 0.000000 -2.449906 4.627600 
				}
			}
		}
	}
	JOINT rThigh
	{
		OFFSET -5.308129 -1.633274 1.361059 
		CHANNELS 3 Xrotation Zrotation Yrotation
		JOINT rShin
		{
			OFFSET 2.041588 -20.007561 0.000000 
			CHANNELS 3 Xrotation Zrotation Yrotation
			JOINT rFoot
			{
				OFFSET 0.000000 -19.190928 -1.224953 
				CHANNELS 3 Xrotation Yrotation Zrotation
				End Site
				{
					OFFSET 0.000000 -2.449906 4.627600 
				}
			}
		}
	}
}
MOTION
Frames: 13
Frame Time: 0.033333
-30.436714 50.566528 -42.576263 -13.076173 0.292969 35.634762 36.057667 -0.955664 0.590595 -20.025719 11.313183 0.527769 -2.913086 -5.766787 -7.576205 9.070248 1.566744 -8.064203 -2.395443 -6.880800 -0.005397 -73.491440 13.894380 1.924495 -43.771873 3.830843 48.375145 -0.760350 22.955633 -0.293660 11.886529 -2.125972 -0.001098 54.639126 2.765365 -26.144627 83.322266 -3.261792 40.569962 -27.873859 -4.859559 2.561148 1.591257 7.294311 3.374299 25.372393 -1.332088 -2.244942 -4.472490 15.350589 -10.657385 -3.006720 -13.761481 -5.057693 29.715565 1.132609 2.480228 18.647802 4.775545 10.755519 
-30.424259 50.561371 -42.511944 -12.929688 0.458984 36.181717 35.726379 -0.776084 0.985395 -20.105091 10.922739 0.838581 -2.580827 -5.651833 -8.550512 8.728624 1.664655 -9.008407 -2.522118 -6.715348 -0.003573 -73.300316 13.562031 1.971866 -44.131279 3.819461 48.145966 -0.830194 22.769386 -0.328251 12.110211 -2.189396 -0.009079 51.476158 7.610507 -28.877750 82.220657 -3.465509 43.533463 -29.572350 -6.165924 3.473724 1.513133 7.196128 3.238902 25.333307 -1.332060 -2.242919 -4.403361 15.058847 -10.703270 -2.909731 -13.853097 -5.076571 29.959316 1.122844 2.509610 18.316322 4.233879 10.945267 
-30.404139 50.555630 -42.407028 -12.841797 0.791016 36.914063 35.463177 -0.615586 1.376275 -20.116264 10.346593 1.180091 -2.428785 -5.394059 -9.560719 8.670177 1.830716 -9.974674 -2.697926 -6.471897 -0.002888 -72.992561 13.240967 1.923322 -44.587936 3.791727 47.783394 -0.929843 22.690325 -0.359038 12.276348 -2.198956 -0.000657 48.271057 11.844952 -31.553278 80.156487 -3.687593 47.136745 -31.791166 -7.772124 4.778090 1.629292 7.037804 2.998839 25.245241 -1.341782 -2.230638 -4.382025 14.749020 -10.730609 -2.577752 -14.006744 -5.189768 30.311184 1.113194 2.525008 17.823853 3.603343 11.174129 
-30.381504 50.545929 -42.273361 -12.802734 1.230469 37.802734 35.221287 -0.468366 1.684753 -19.950848 9.848160 1.466718 -2.492808 -5.290893 -10.492852 8.689961 2.162732 -10.902574 -2.806011 -6.354835 -0.009232 -72.677055 12.865697 1.713434 -44.986816 3.775396 47.524193 -0.930309 22.758684 -0.359035 12.519553 -2.272022 -0.005027 45.022057 15.468521 -34.074173 77.059952 -3.925402 51.054485 -34.219460 -9.365763 6.305811 1.845393 6.835733 2.487399 25.176941 -1.332185 -2.234881 -4.435010 14.540723 -10.748923 -2.119088 -14.191024 -5.470620 30.750868 1.093620 2.552003 17.377260 2.983567 11.378500 
-30.374796 50.541374 -42.127602 -12.812500 1.611328 38.828125 34.990795 -0.231057 1.941511 -19.824446 9.447467 1.653275 -2.656110 -5.266583 -11.312695 8.865882 2.436035 -11.714686 -2.903182 -6.335797 -0.009354 -72.382095 12.600627 1.628176 -45.428234 3.740381 46.963707 -0.832079 23.072117 -0.328246 12.684132 -2.442563 -0.000423 41.999413 18.629988 -36.128750 73.114906 -4.142131 55.052467 -35.570145 -10.596636 7.481140 2.020085 6.774200 1.977634 25.167168 -1.332248 -2.234390 -4.413075 14.138776 -10.796297 -1.553334 -14.268022 -5.860124 31.083273 1.080277 2.565355 17.046015 2.318692 11.592481 
-30.390005 50.529877 -41.972736 -12.861328 1.943359 39.843746 34.770954 -0.045407 2.158022 -19.795267 9.359507 1.800378 -2.659964 -5.485871 -11.939186 8.827096 2.777861 -12.368627 -2.989463 -6.531837 -0.009913 -72.157806 12.441474 1.432544 -45.646496 3.714310 46.497044 -1.131304 23.019869 -0.442352 12.984182 -2.657716 -0.007931 39.304131 21.061939 -37.689445 69.130150 -4.291656 57.946362 -35.739933 -11.549129 8.187756 2.049204 6.823117 1.379740 25.391926 -1.332421 -2.246017 -4.380705 13.680697 -10.844087 -1.093907 -14.214687 -6.130229 31.581699 1.052453 2.592950 16.648954 1.638889 11.793587 
-30.410366 50.529160 -41.816917 -12.861328 2.197266 40.800781 34.549732 0.188122 2.433842 -19.992186 8.959581 1.981788 -2.739235 -5.375235 -12.495617 8.963885 2.963306 -12.916722 -3.164150 -6.464601 -0.006737 -71.939087 12.546336 1.367020 -45.702118 3.689173 46.060658 -1.690023 22.795986 -0.656344 13.219246 -2.598456 -0.000982 37.341434 22.748932 -38.809921 66.067345 -4.385141 59.986683 -35.059811 -12.114804 8.365856 2.118412 6.941575 1.003931 25.431017 -1.332315 -2.248012 -4.329384 13.091169 -10.917302 -0.723044 -14.141775 -6.393966 32.050823 1.023069 2.618571 16.354980 1.058142 11.948103 
-30.435280 50.540771 -41.661816 -12.822266 2.382812 41.728916 34.328518 0.412113 2.707728 -20.267109 8.686773 2.142002 -2.951522 -5.520247 -12.927009 9.354472 3.197406 -13.359666 -3.309366 -6.514436 -0.005585 -71.777702 12.840074 1.286135 -45.624855 3.689790 46.055222 -1.849730 22.675484 -0.717872 13.542668 -2.422963 -0.008608 35.909645 23.675026 -39.542385 64.574905 -4.469227 61.623100 -34.450550 -12.407440 8.375840 2.117091 7.065512 0.491478 25.441143 -1.332401 -2.238817 -4.217639 12.581750 -10.993950 -0.459585 -14.071574 -6.681283 32.519634 1.003467 2.646501 16.193876 0.582461 12.078377 
-30.458397 50.561138 -41.511147 -12.695313 2.539063 42.578129 34.068138 0.588265 2.971909 -20.405050 8.325749 2.344158 -3.702041 -5.466741 -13.244487 10.203585 3.128530 -13.670007 -3.436025 -6.485746 -0.008540 -71.583321 13.069215 1.368438 -45.371948 3.683480 45.931519 -1.381655 22.840466 -0.538485 13.741494 -2.051130 -0.000576 34.959652 24.357773 -40.039669 64.743820 -4.541132 63.552982 -34.191441 -12.883375 8.598408 2.168365 7.195597 0.186902 25.205074 -1.334573 -2.265832 -3.976576 12.023885 -11.096088 -0.205990 -14.059447 -7.050620 32.842045 1.008643 2.654358 16.123163 0.300628 12.157697 
-30.487259 50.580662 -41.375206 -12.519532 2.646484 43.349609 33.798634 0.684017 3.190063 -20.473932 8.179416 2.508710 -4.704076 -5.561042 -13.387487 11.257646 2.952266 -13.845478 -3.455669 -6.398014 -0.005430 -71.600166 13.226165 1.554788 -44.899323 3.668913 45.766544 -0.693333 22.926853 -0.271876 13.871011 -1.681617 -0.006932 34.292480 25.097757 -40.119625 66.032791 -4.624847 65.837715 -34.490700 -13.858483 9.330167 2.148577 7.255746 -0.143400 24.960791 -1.348458 -2.236580 -3.761872 11.590170 -11.175461 0.009516 -14.071548 -7.419347 33.017803 0.993661 2.668765 16.003725 0.075780 12.211660 
-30.506422 50.598507 -41.247654 -12.343750 2.773438 44.062504 33.548321 0.806609 3.423632 -20.474512 7.915743 2.713764 -5.717250 -5.353996 -13.393925 12.194602 2.639481 -13.844135 -3.593184 -6.144579 -0.004704 -71.730232 13.340452 1.646986 -44.295193 3.661479 45.551376 -0.484300 22.869720 -0.188525 13.951861 -1.238722 -0.004079 33.821480 25.906055 -39.962818 67.672035 -4.707986 68.314880 -35.127731 -14.513546 9.992886 2.099652 7.303959 -0.474495 24.804417 -1.348483 -2.228508 -3.519915 11.139400 -11.262085 0.233565 -14.114502 -7.870145 33.154850 0.993530 2.665877 15.926715 -0.050290 12.246070 
-30.524029 50.601379 -41.123688 -12.285156 2.929688 44.677734 33.424576 0.936896 3.668523 -20.504147 7.798620 2.898677 -6.415859 -5.157954 -13.180455 12.848564 2.346396 -13.625415 -3.682555 -5.880815 -0.007830 -72.003563 13.452572 1.770861 -43.622227 3.664214 45.566662 -0.801616 22.623283 -0.306468 14.167696 -1.009002 -0.007095 33.515320 26.706442 -39.547714 69.197258 -4.772624 70.779358 -35.717159 -14.950943 10.494388 2.158298 7.362627 -0.855011 24.735874 -1.358198 -2.217182 -3.395815 10.848154 -11.305625 0.497048 -14.114530 -8.201679 33.379162 0.973886 2.691071 15.814465 -0.198086 12.286837 
-30.542831 50.598625 -41.016853 -12.236327 3.085938 45.205605 33.288345 1.071087 3.993758 -20.524370 7.505694 3.171667 -6.833670 -4.760064 -12.833002 13.326874 2.160806 -13.239098 -3.878805 -5.559232 -0.005952 -72.275887 13.504748 1.777070 -42.979206 3.694348 46.070202 -1.534319 22.427839 -0.591047 14.451564 -0.866885 0.001586 33.309891 27.385342 -39.032913 70.273430 -4.845481 73.308731 -36.104382 -15.377970 10.942119 2.156802 7.377690 -1.239656 24.755440 -1.357854 -2.218125 -3.317507 10.703276 -11.317001 0.712150 -14.127656 -8.571023 33.603577 0.964227 2.709296 15.723944 -0.315308 12.323458 
